HIERARCHY
ROOT Hips
{
	OFFSET 0.00000 0.00000 0.00000
	CHANNELS 6 Xposition Yposition Zposition Zrotation Yrotation Xrotation 
	JOINT LHipJoint
	{
		OFFSET 0 0 0
		CHANNELS 3 Zrotation Yrotation Xrotation
		JOINT LeftUpLeg
		{
			OFFSET 1.23340 -1.80723 0.69510
			CHANNELS 3 Zrotation Yrotation Xrotation
			JOINT LeftLeg
			{
				OFFSET 2.50056 -6.87023 0.00000
				CHANNELS 3 Zrotation Yrotation Xrotation
				JOINT LeftFoot
				{
					OFFSET 2.85931 -7.85591 0.00000
					CHANNELS 3 Zrotation Yrotation Xrotation
					JOINT LeftToeBase
					{
						OFFSET 0.21001 -0.57700 2.07823
						CHANNELS 3 Zrotation Yrotation Xrotation
						End Site
						{
							OFFSET 0.00000 -0.00000 1.08338
						}
					}
				}
			}
		}
	}
	JOINT RHipJoint
	{
		OFFSET 0 0 0
		CHANNELS 3 Zrotation Yrotation Xrotation
		JOINT RightUpLeg
		{
			OFFSET -1.40842 -1.80723 0.69510
			CHANNELS 3 Zrotation Yrotation Xrotation
			JOINT RightLeg
			{
				OFFSET -2.54876 -7.00266 0.00000
				CHANNELS 3 Zrotation Yrotation Xrotation
				JOINT RightFoot
				{
					OFFSET -2.74835 -7.55104 0.00000
					CHANNELS 3 Zrotation Yrotation Xrotation
					JOINT RightToeBase
					{
						OFFSET -0.22633 -0.62184 2.00890
						CHANNELS 3 Zrotation Yrotation Xrotation
						End Site
						{
							OFFSET -0.00000 -0.00000 1.05493
						}
					}
				}
			}
		}
	}
	JOINT LowerBack
	{
		OFFSET 0 0 0
		CHANNELS 3 Zrotation Yrotation Xrotation
		JOINT Spine
		{
			OFFSET -0.02340 2.02740 -0.12728
			CHANNELS 3 Zrotation Yrotation Xrotation
			JOINT Spine1
			{
				OFFSET -0.00862 2.03614 -0.01188
				CHANNELS 3 Zrotation Yrotation Xrotation
				JOINT Neck
				{
					OFFSET 0 0 0
					CHANNELS 3 Zrotation Yrotation Xrotation
					JOINT Neck1
					{
						OFFSET 0.03380 1.76650 0.27670
						CHANNELS 3 Zrotation Yrotation Xrotation
						JOINT Head
						{
							OFFSET -0.01114 1.80516 -0.21451
							CHANNELS 3 Zrotation Yrotation Xrotation
							End Site
							{
								OFFSET -0.00766 1.81942 -0.10287
							}
						}
					}
				}
				JOINT LeftShoulder
				{
					OFFSET 0 0 0
					CHANNELS 3 Zrotation Yrotation Xrotation
					JOINT LeftArm
					{
						OFFSET 3.22358 1.39475 0.18630
						CHANNELS 3 Zrotation Yrotation Xrotation
						JOINT LeftForeArm
						{
							OFFSET 5.45077 -0.00000 0.00000
							CHANNELS 3 Zrotation Yrotation Xrotation
							JOINT LeftHand
							{
								OFFSET 3.05488 -0.00000 0.00000
								CHANNELS 3 Zrotation Yrotation Xrotation
								JOINT LeftFingerBase
								{
									OFFSET 0 0 0
									CHANNELS 3 Zrotation Yrotation Xrotation
									JOINT LeftHandIndex1
									{
										OFFSET 0.63882 -0.00000 0.00000
										CHANNELS 3 Zrotation Yrotation Xrotation
										End Site
										{
											OFFSET 0.51503 -0.00000 0.00000
										}
									}
								}
								JOINT LThumb
								{
									OFFSET 0 0 0
									CHANNELS 3 Zrotation Yrotation Xrotation
									End Site
									{
										OFFSET 0.52290 -0.00000 0.52290
									}
								}
							}
						}
					}
				}
				JOINT RightShoulder
				{
					OFFSET 0 0 0
					CHANNELS 3 Zrotation Yrotation Xrotation
					JOINT RightArm
					{
						OFFSET -3.57143 1.14055 0.30691
						CHANNELS 3 Zrotation Yrotation Xrotation
						JOINT RightForeArm
						{
							OFFSET -4.88702 -0.00000 -0.00000
							CHANNELS 3 Zrotation Yrotation Xrotation
							JOINT RightHand
							{
								OFFSET -3.22603 -0.00000 0.00000
								CHANNELS 3 Zrotation Yrotation Xrotation
								JOINT RightFingerBase
								{
									OFFSET 0 0 0
									CHANNELS 3 Zrotation Yrotation Xrotation
									JOINT RightHandIndex1
									{
										OFFSET -0.71629 -0.00000 0.00000
										CHANNELS 3 Zrotation Yrotation Xrotation
										End Site
										{
											OFFSET -0.57749 -0.00000 0.00000
										}
									}
								}
								JOINT RThumb
								{
									OFFSET 0 0 0
									CHANNELS 3 Zrotation Yrotation Xrotation
									End Site
									{
										OFFSET -0.58631 -0.00000 0.58631
									}
								}
							}
						}
					}
				}
			}
		}
	}
}
MOTION
Frames: 9
Frame Time: .0083333
1.3440 18.5309 0.1808 14.1292 84.6402 27.1978 0.0000 0.0000 0.0000 -19.5917 3.0744 -16.7208 0.7649 5.5850 15.5849 0.5979 -4.1766 -13.7852 2.0651 -9.0004 -25.7967 0.0000 0.0000 0.0000 13.9504 1.2894 -7.7216 0.0000 -0.0000 0.0000 0.1273 7.6746 -1.8491 -0.2229 3.0393 -8.3881 -3.7607 -1.8850 -11.1873 -3.1565 -1.8075 -3.8148 -1.3956 -0.8208 2.3016 -9.7672 -20.1763 -6.8922 13.2665 -27.0395 1.9534 3.1203 -13.0097 4.7403 -0.0000 -0.0000 0.0000 -32.6058 27.8071 91.6749 104.1241 -59.2326 -72.2003 -0.0000 -0.0000 9.6226 21.6994 5.2637 2.0908 -7.1250 0.0000 -0.0000 -4.1669 35.6170 0.9628 -0.0000 -0.0000 0.0000 2.5617 18.4209 -46.8673 -33.2033 43.4858 -13.5618 0.0000 -0.0000 -33.2008 -33.6051 8.5039 -5.6123 7.1250 -0.0000 -0.0000 -4.8025 -19.8204 -2.8997
1.3400 18.5329 0.1844 13.1332 84.6246 26.1685 0.0000 0.0000 0.0000 -19.5063 3.2065 -16.7359 0.7648 5.5845 15.5835 0.5985 -4.2118 -13.7910 2.0797 -9.0301 -25.8896 0.0000 0.0000 0.0000 14.0560 1.3436 -7.6794 0.0000 0.0000 -0.0000 0.1264 7.6709 -1.8779 -0.2411 3.1599 -8.7241 -3.6837 -1.8860 -11.1341 -3.0887 -1.8256 -3.8538 -1.3680 -0.8296 2.2318 -9.9676 -20.1465 -6.9230 13.3438 -26.9978 2.0309 3.1568 -12.9829 4.8021 0.0000 -0.0000 0.0000 -31.8668 26.5220 91.5923 105.4172 -59.0826 -73.3106 -0.0000 -0.0000 9.4281 20.3828 5.2921 1.9627 -7.1250 0.0000 -0.0000 -5.2646 35.5824 1.2225 0.0000 -0.0000 0.0000 2.4807 18.6944 -47.0288 -33.0602 43.3762 -13.4634 0.0000 -0.0000 -32.7852 -33.4689 8.6916 -5.7051 7.1250 -0.0000 -0.0000 -4.6860 -19.6131 -2.8507
1.3367 18.5337 0.1887 12.5968 84.5682 25.5916 0.0000 0.0000 0.0000 -19.4502 3.2309 -16.6952 0.7648 5.5845 15.5835 0.6030 -4.1714 -13.8450 2.0519 -8.9734 -25.7123 0.0000 0.0000 0.0000 14.1084 1.4121 -7.6242 0.0000 -0.0000 0.0000 0.1258 7.6713 -1.9014 -0.2478 3.2030 -8.8445 -3.6446 -1.8864 -11.0666 -3.0587 -1.8377 -3.9058 -1.3569 -0.8345 2.1407 -10.0033 -20.1103 -7.0459 13.2345 -26.9445 2.1926 3.1197 -12.9508 4.8537 0.0000 -0.0000 0.0000 -31.2070 25.1803 91.2376 106.6974 -58.9199 -74.4080 -0.0000 -0.0000 9.3599 18.6105 5.2912 1.7787 -7.1250 0.0000 -0.0000 -6.7349 35.4947 1.5819 0.0000 -0.0000 0.0000 2.4100 19.0262 -47.2548 -32.9103 43.2610 -13.3605 0.0000 -0.0000 -32.3773 -33.3365 8.6921 -5.6770 7.1250 -0.0000 -0.0000 -4.5923 -19.6273 -2.7918
1.3333 18.5341 0.1919 12.4758 84.4894 25.4387 0.0000 0.0000 0.0000 -19.4448 3.2674 -16.6634 0.7639 5.5814 15.5746 0.5987 -4.1100 -13.7978 2.0300 -8.9283 -25.5714 0.0000 0.0000 0.0000 14.0993 1.4847 -7.5838 0.0000 0.0000 -0.0000 0.1249 7.6588 -1.9157 -0.2472 3.1992 -8.8337 -3.6253 -1.9029 -11.0182 -3.0478 -1.8661 -3.9448 -1.3577 -0.8476 2.0735 -10.0415 -20.0523 -7.1352 13.1998 -26.8587 2.2535 3.1152 -12.9044 4.8772 -0.0000 -0.0000 0.0000 -30.5686 23.7797 90.6805 108.2374 -58.7052 -75.7253 -0.0000 -0.0000 9.4266 16.4132 5.4373 1.5988 -7.1250 0.0000 -0.0000 -8.5703 35.5380 2.0110 -0.0000 -0.0000 0.0000 2.3355 19.3327 -47.3159 -32.7747 43.1562 -13.2677 0.0000 -0.0000 -32.1385 -33.2497 8.6955 -5.6606 7.1250 -0.0000 -0.0000 -4.5305 -19.6327 -2.7535
1.3256 18.5346 0.1985 12.2065 84.4862 25.1840 0.0000 0.0000 0.0000 -19.3894 3.2668 -16.6837 0.7610 5.5710 15.5447 0.5927 -4.0694 -13.7300 2.0565 -8.9828 -25.7415 0.0000 0.0000 0.0000 14.1602 1.5183 -7.6143 0.0000 -0.0000 0.0000 0.1239 7.6269 -1.9083 -0.2469 3.1974 -8.8289 -3.6201 -1.9521 -10.9939 -3.0235 -1.9350 -4.0032 -1.3422 -0.8802 2.0003 -10.0073 -19.9887 -7.1840 13.1196 -26.7674 2.2937 3.0984 -12.8598 4.8716 0.0000 -0.0000 0.0000 -30.0119 22.2446 90.0749 109.6343 -58.4920 -76.9177 -0.0000 -0.0000 9.4290 14.6219 5.7291 1.4918 -7.1250 0.0000 -0.0000 -10.0907 35.7452 2.3246 0.0000 -0.0000 0.0000 2.2644 19.6319 -47.3178 -32.6423 43.0533 -13.1772 0.0000 -0.0000 -32.0053 -33.1669 8.5571 -5.5543 7.1250 -0.0000 -0.0000 -4.4862 -19.8053 -2.7090
1.3182 18.5342 0.2047 12.4439 84.5001 25.4313 0.0000 0.0000 0.0000 -19.3950 3.2702 -16.7026 0.7593 5.5650 15.5272 0.5925 -4.0298 -13.7296 2.1053 -9.0821 -26.0524 0.0000 0.0000 0.0000 14.1723 1.5111 -7.6449 0.0000 0.0000 -0.0000 0.1229 7.6009 -1.9047 -0.2463 3.1935 -8.8178 -3.6257 -1.9936 -10.9708 -3.0429 -1.9902 -4.0716 -1.3640 -0.9053 1.9161 -9.9993 -19.9282 -7.1672 13.1201 -26.6840 2.2700 3.1131 -12.8206 4.8523 0.0000 0.0000 0.0000 -29.4475 20.5974 89.4000 110.9914 -58.2678 -78.0733 -0.0000 -0.0000 9.4209 13.1400 5.9635 1.3893 -7.1250 0.0000 -0.0000 -11.3493 35.9037 2.5789 0.0000 0.0000 0.0000 2.2928 19.8841 -47.2953 -32.5849 43.0086 -13.1381 0.0000 -0.0000 -31.9055 -33.2730 8.5003 -5.5401 7.1250 -0.0000 -0.0000 -4.5674 -19.8609 -2.7527
1.3177 18.5327 0.2065 12.0661 84.3811 25.0056 0.0000 0.0000 0.0000 -19.3967 3.2815 -16.6298 0.7590 5.5639 15.5242 0.6014 -3.8779 -13.8445 2.1183 -9.1082 -26.1344 0.0000 0.0000 0.0000 14.1640 1.6217 -7.5708 0.0000 0.0000 -0.0000 0.1222 7.5745 -1.8948 -0.2450 3.1855 -8.7955 -3.5585 -1.9979 -11.0080 -3.0545 -2.0004 -4.0911 -1.4159 -0.9104 1.9135 -10.0008 -19.8672 -7.2498 13.0426 -26.5900 2.3048 3.0976 -12.7732 4.8549 0.0000 0.0000 0.0000 -29.0489 18.9226 88.5617 112.2220 -58.0493 -79.1188 -0.0000 -0.0000 9.1369 12.1557 6.2149 1.3358 -7.1250 0.0000 -0.0000 -12.2031 36.1018 2.7198 0.0000 0.0000 0.0000 2.3124 20.1852 -47.2959 -32.5063 42.9471 -13.0845 0.0000 -0.0000 -31.7945 -33.2547 8.4970 -5.5342 7.1250 -0.0000 -0.0000 -4.5547 -19.8667 -2.7444
1.3170 18.5349 0.2063 11.5457 84.2840 24.4313 0.0000 0.0000 0.0000 -19.3765 3.3212 -16.5589 0.7591 5.5643 15.5253 0.6062 -3.7826 -13.9089 2.1194 -9.1105 -26.1417 0.0000 0.0000 0.0000 14.1691 1.7179 -7.5003 0.0000 0.0000 -0.0000 0.1227 7.5808 -1.8825 -0.2377 3.1376 -8.6620 -3.4287 -1.9775 -11.0502 -3.0945 -1.9831 -4.0832 -1.5295 -0.9031 1.9391 -9.9760 -19.8048 -7.2842 13.0766 -26.4926 2.1868 3.1212 -12.7257 4.8157 0.0000 0.0000 0.0000 -28.6820 17.0462 87.6970 113.3597 -57.8343 -80.0830 -0.0000 -0.0000 8.6345 11.6140 6.5336 1.3397 -7.1250 0.0000 -0.0000 -12.7071 36.3886 2.7456 0.0000 0.0000 0.0000 2.3579 20.4060 -47.3186 -32.4103 42.8718 -13.0191 0.0000 -0.0000 -31.5999 -33.2617 8.5461 -5.5672 7.1250 -0.0000 -0.0000 -4.5546 -19.8080 -2.7503
1.3117 18.5356 0.2090 11.9956 84.2339 24.8374 0.0000 0.0000 0.0000 -19.4515 3.4519 -16.5206 0.7577 5.5592 15.5106 0.6082 -3.8434 -13.9274 2.1173 -9.1062 -26.1281 0.0000 0.0000 0.0000 14.1126 1.7387 -7.4639 0.0000 -0.0000 0.0000 0.1237 7.5984 -1.8707 -0.2263 3.0619 -8.4512 -3.4397 -2.0086 -11.0600 -3.1395 -2.0200 -4.0878 -1.5751 -0.9210 1.9383 -9.8966 -19.7269 -7.3816 13.0504 -26.3733 2.1154 3.1189 -12.6654 4.7827 -0.0000 -0.0000 0.0000 -28.4592 15.1803 86.6489 114.4383 -57.6185 -80.9949 -0.0000 -0.0000 8.3751 11.0241 7.0975 1.3789 -7.1250 0.0000 -0.0000 -13.3019 36.9130 2.7050 -0.0000 -0.0000 0.0000 2.3496 20.6454 -47.3917 -32.2754 42.7657 -12.9275 0.0000 -0.0000 -31.3047 -33.0985 8.5538 -5.5378 7.1250 -0.0000 -0.0000 -4.4380 -19.8166 -2.6786
